HIERARCHY
ROOT Hips
{
	OFFSET 0.000000 8.830580 0.000000
	CHANNELS 6 Xposition Yposition Zposition Zrotation Yrotation Xrotation 
	JOINT Spine
	{
		OFFSET 0.000000 0.010000 0.000000
		CHANNELS 3 Zrotation Yrotation Xrotation
		JOINT Spine1
		{
			OFFSET 0.000000 2.459130 0.000000
			CHANNELS 3 Zrotation Yrotation Xrotation
			JOINT Neck
			{
				OFFSET 0.000000 2.484630 0.000000
				CHANNELS 3 Zrotation Yrotation Xrotation
				JOINT Head_virtual
				{
					OFFSET 0.000000 0.000000 0.000000
					CHANNELS 3 Zrotation Yrotation Xrotation
					JOINT Head
					{
						OFFSET 0.000000 0.927525 0.000000
						CHANNELS 3 Zrotation Yrotation Xrotation
						End Site
						{
							OFFSET 0.000000 0.000000 0.000000
						}
					}
				}
				JOINT LeftUpArm_virtual
				{
					OFFSET 0.000000 0.000000 0.000000
					CHANNELS 3 Zrotation Yrotation Xrotation
					JOINT LeftUpArm
					{
						OFFSET 1.248820 0.000000 0.000000
						CHANNELS 3 Zrotation Yrotation Xrotation
						JOINT LeftForeArm
						{
							OFFSET 2.597580 0.000000 0.000000
							CHANNELS 3 Zrotation Yrotation Xrotation
							JOINT LeftHand
							{
								OFFSET 2.455420 0.000000 0.000000
								CHANNELS 3 Zrotation Yrotation Xrotation
								End Site
								{
									OFFSET 0.000000 0.000000 0.000000
								}
							}
						}
					}
				}
				JOINT RightUpArm_virtual
				{
					OFFSET -0.000000 -0.000000 -0.000000
					CHANNELS 3 Zrotation Yrotation Xrotation
					JOINT RightUpArm
					{
						OFFSET -1.248820 -0.000000 -0.000000
						CHANNELS 3 Zrotation Yrotation Xrotation
						JOINT RightForeArm
						{
							OFFSET -2.597580 -0.000000 -0.000000
							CHANNELS 3 Zrotation Yrotation Xrotation
							JOINT RightHand
							{
								OFFSET -2.455420 -0.000000 -0.000000
								CHANNELS 3 Zrotation Yrotation Xrotation
								End Site
								{
									OFFSET 0.000000 0.000000 0.000000
								}
							}
						}
					}
				}
			}
		}
	}
	JOINT LeftUpLeg
	{
		OFFSET 1.271939 0.000000 0.000000
		CHANNELS 3 Zrotation Yrotation Xrotation
		JOINT LeftLowLeg
		{
			OFFSET 0.000000 -4.342910 0.000000
			CHANNELS 3 Zrotation Yrotation Xrotation
			JOINT LeftFoot
			{
				OFFSET 0.000000 -4.487670 0.000000
				CHANNELS 3 Zrotation Yrotation Xrotation
				JOINT LeftToeBase
				{
					OFFSET 0.000000 0.000000 1.515070
					CHANNELS 3 Zrotation Yrotation Xrotation
					End Site
					{
						OFFSET 0.000000 0.000000 0.000000
					}
				}
			}
		}
	}
	JOINT RightUpLeg
	{
		OFFSET -1.271939 0.000000 0.000000
		CHANNELS 3 Zrotation Yrotation Xrotation
		JOINT RightLowLeg
		{
			OFFSET 0.000000 -4.342910 0.000000
			CHANNELS 3 Zrotation Yrotation Xrotation
			JOINT RightFoot
			{
				OFFSET 0.000000 -4.487670 0.000000
				CHANNELS 3 Zrotation Yrotation Xrotation
				JOINT RightToeBase
				{
					OFFSET 0.000000 0.000000 1.515070
					CHANNELS 3 Zrotation Yrotation Xrotation
					End Site
					{
						OFFSET 0.000000 0.000000 0.000000
					}
				}
			}
		}
	}
}
MOTION
Frames: 12
Frame Time: 0.041667
-20.454647 -0.033358 40.708815 -85.305630 50.794406 -144.747542 0.010206 -21.357874 16.080437 25.905324 25.821402 34.487930 0.000000 0.000000 0.000000 -6.211708 -52.661784 54.807041 36.135734 20.938609 -61.099032 -14.959300 -2.666790 -4.056970 -52.862499 75.838799 13.476300 0.000000 -61.825199 0.000000 102.292000 7.865970 -3.856110 19.898500 -8.196480 -1.740690 -3.091490 -2.456440 -44.545898 0.000000 31.225000 0.000000 -23.212601 -8.824930 9.213470 -3.308012 22.240878 -81.420257 0.000000 0.000000 66.055199 17.199461 23.702426 13.815644 0.000000 0.000000 -31.105801 14.828511 -14.633746 -80.305792 0.000000 0.000000 132.513000 44.247757 16.221913 28.205472 0.000000 0.000000 -18.485650 
-20.450026 -0.035840 40.714241 -85.497788 51.026861 -144.769814 0.314954 -21.469069 15.776885 25.058813 25.533356 34.589450 0.000000 0.000000 0.000000 -6.073693 -52.103525 54.251848 36.281733 20.630606 -60.825238 -14.738200 -2.273080 -4.637730 -52.227200 75.881599 13.983200 0.000000 -61.620201 0.000000 102.050003 7.929260 -3.850670 19.938200 -8.262240 -1.964000 -0.395603 -6.262770 -40.782200 0.000000 28.421900 0.000000 -22.376301 -10.262100 7.961980 -3.356076 22.194096 -81.483795 0.000000 0.000000 66.064400 17.092999 23.791751 13.890044 0.000000 0.000000 -31.063601 14.776185 -14.505911 -80.552811 0.000000 0.000000 132.662994 43.849293 16.108004 27.923357 0.000000 0.000000 -18.572050 
-20.445681 -0.038386 40.719532 -85.821735 51.309655 -144.880670 0.512021 -21.501767 15.665232 24.292765 25.484006 34.340591 0.000000 0.000000 0.000000 -6.100995 -51.958778 54.375301 36.160210 20.709528 -60.829888 -14.717200 -2.064420 -5.179390 -50.835800 76.073502 14.928800 0.000000 -61.441002 0.000000 101.688004 7.936700 -3.948250 20.193501 -8.810190 -1.867440 2.326780 -9.644610 -35.947399 0.000000 25.738300 0.000000 -21.219101 -11.461900 5.410110 -3.469443 22.094169 -81.488575 0.000000 0.000000 65.989998 17.099750 23.964271 14.021287 0.000000 0.000000 -31.002800 14.704989 -14.474624 -80.889857 0.000000 0.000000 132.854004 43.255058 15.935567 27.602706 0.000000 0.000000 -18.680650 
-20.444943 -0.040580 40.727633 -86.128733 51.638855 -144.924418 0.529918 -21.577589 15.587684 23.991788 25.429940 34.140632 0.000000 0.000000 0.000000 -6.196471 -51.482226 54.208904 36.324518 20.471803 -60.919470 -14.916600 -2.003170 -5.475810 -49.659500 76.120102 15.788400 0.000000 -61.154598 0.000000 101.332001 8.096110 -3.935520 20.574800 -9.468690 -1.361790 4.807290 -12.885400 -30.285400 0.000000 23.565001 0.000000 -18.668301 -11.179000 2.917500 -3.577331 22.010063 -81.467574 0.000000 0.000000 65.789200 17.261892 24.179528 14.245345 0.000000 0.000000 -30.924700 14.707480 -14.383262 -81.293176 0.000000 0.000000 132.996002 42.811217 15.719474 27.269720 0.000000 0.000000 -18.701970 
-20.444065 -0.046338 40.734754 -86.314030 52.034123 -145.041509 0.522109 -21.697543 15.827115 23.638858 25.390560 33.777125 0.000000 0.000000 0.000000 -6.432473 -50.854952 54.143591 36.342840 20.388867 -61.376922 -15.099400 -1.743590 -5.613540 -48.207699 75.905403 17.194599 0.000000 -60.755699 0.000000 101.029999 8.441590 -3.973670 20.767200 -10.218200 -0.913621 7.859710 -15.345100 -26.979099 0.000000 21.711500 0.000000 -15.977100 -11.379200 3.769090 -3.492335 21.923199 -81.270293 0.000000 0.000000 65.610100 17.458890 24.488030 14.671835 0.000000 0.000000 -30.907400 14.772183 -14.413472 -81.568774 0.000000 0.000000 133.143005 42.180236 15.380814 26.838976 0.000000 0.000000 -18.421310 
-20.447230 -0.055314 40.743625 -86.553878 52.531566 -145.057004 0.587042 -21.908483 15.738121 23.276531 25.168307 33.670493 0.000000 0.000000 0.000000 -6.593078 -49.837377 53.495565 36.183438 20.106228 -61.781940 -15.282800 -1.696180 -6.026290 -46.672401 76.012199 18.989700 0.000000 -60.353199 0.000000 100.734001 9.002420 -3.935230 20.878401 -10.857300 -1.031920 10.839700 -17.707701 -22.405199 0.000000 20.933800 0.000000 -14.114100 -14.540900 1.772010 -3.494072 21.836524 -81.167111 0.000000 0.000000 65.371597 17.664440 24.737294 15.213489 0.000000 0.000000 -30.768900 14.821613 -14.449703 -82.063574 0.000000 0.000000 133.251007 41.551249 15.005279 26.598670 0.000000 0.000000 -18.479440 
-20.447124 -0.069295 40.750483 -86.734693 53.064178 -145.323397 0.865848 -22.189379 15.863951 22.266658 24.882669 33.365096 0.000000 0.000000 0.000000 -6.700261 -48.566159 52.824871 35.289812 20.191717 -62.196994 -15.276700 -1.517820 -6.450920 -44.842098 76.207603 21.209700 0.000000 -60.126999 0.000000 100.554001 9.765720 -3.825860 20.693199 -11.268200 -1.111850 14.523800 -20.026800 -16.989700 0.000000 20.674700 0.000000 -14.658700 -16.947001 -2.240670 -3.326939 21.744640 -80.754661 0.000000 0.000000 65.159897 17.688552 25.105399 15.564388 0.000000 0.000000 -30.759500 14.886644 -14.643811 -82.364298 0.000000 0.000000 133.406998 40.937723 14.533929 26.342264 0.000000 0.000000 -18.412170 
-20.448619 -0.082608 40.756187 -86.804365 53.792236 -145.478850 1.310240 -22.404661 15.806156 21.024736 24.584630 33.213860 0.000000 0.000000 0.000000 -6.772870 -46.865932 52.001544 33.885021 20.647651 -62.755174 -15.336600 -1.207790 -6.842110 -42.508499 76.255898 23.870701 0.000000 -60.141899 0.000000 100.353996 10.576700 -3.540940 20.334400 -11.343800 -1.326990 18.369801 -22.937099 -11.278700 0.000000 21.803101 0.000000 -13.371300 -19.435600 -7.696840 -3.020776 21.717969 -80.343460 0.000000 0.000000 65.121399 17.503981 25.521726 15.866786 0.000000 0.000000 -30.720600 14.957960 -14.709154 -82.700264 0.000000 0.000000 133.567001 39.489602 13.846118 25.833030 0.000000 0.000000 -17.845680 
-20.449889 -0.095633 40.766018 -87.061194 54.632954 -145.897673 1.599359 -22.602897 15.816457 19.860433 24.234268 33.084307 0.000000 0.000000 0.000000 -6.731876 -43.465028 50.066767 33.453572 20.535550 -62.649387 -15.375200 -0.834343 -7.244290 -40.182598 76.286003 26.336399 0.000000 -60.329102 0.000000 99.879402 11.333000 -3.174020 19.925100 -11.661600 -1.174920 22.169800 -25.813299 -6.180660 0.000000 24.419399 0.000000 -11.674800 -21.130501 -12.749400 -2.866646 21.790913 -79.762516 0.000000 0.000000 64.985802 17.144009 25.920341 15.873846 0.000000 0.000000 -30.852800 15.068714 -14.831299 -83.082787 0.000000 0.000000 133.727997 38.089009 12.959319 25.409235 0.000000 0.000000 -17.513300 
-20.452301 -0.108296 40.779699 -87.445379 55.547565 -146.418864 1.690223 -22.790407 15.880920 18.999647 23.909558 32.900059 0.000000 0.000000 0.000000 -7.050551 -40.587908 48.965497 31.733006 21.019926 -63.308789 -15.520100 -0.606674 -7.465700 -38.529701 76.268600 27.993099 0.000000 -60.335098 0.000000 99.399597 11.764800 -2.871010 19.622900 -12.262000 -1.477270 25.253300 -28.717600 -1.871880 0.000000 27.847099 0.000000 -10.861400 -21.681299 -16.017599 -2.716863 21.843966 -79.096602 0.000000 0.000000 64.764702 16.370105 26.386938 15.607315 0.000000 0.000000 -30.859900 15.137653 -14.921441 -83.542327 0.000000 0.000000 133.903000 36.447799 11.991966 25.062073 0.000000 0.000000 -17.325310 
-20.456111 -0.118594 40.795783 -87.798321 56.441241 -146.944449 1.943574 -23.096754 15.726110 17.990798 23.404941 32.988172 0.000000 0.000000 0.000000 -7.480006 -37.653391 47.853094 29.110868 21.767573 -64.317664 -15.512700 -0.404667 -7.788190 -37.782299 76.303703 28.820101 0.000000 -60.268002 0.000000 98.911598 12.201900 -2.480920 19.305201 -12.705400 -1.752430 28.218700 -31.361200 1.630790 0.000000 31.833000 0.000000 -12.863800 -22.710501 -17.496201 -2.489727 21.878183 -78.407394 0.000000 0.000000 64.582001 15.441669 26.883281 15.246783 0.000000 0.000000 -30.820300 15.259703 -15.084880 -83.931089 0.000000 0.000000 134.001999 35.257691 11.136860 25.095597 0.000000 0.000000 -17.853960 
-20.459560 -0.127134 40.813529 -88.234284 57.337787 -147.563441 2.121236 -23.453433 15.639396 17.006368 22.910205 32.864155 0.000000 0.000000 0.000000 -8.276710 -35.482513 47.930428 24.990402 22.987718 -66.544161 -15.573100 -0.178758 -8.068220 -36.079800 76.378601 30.739500 0.000000 -60.325401 0.000000 98.475304 12.935700 -1.993460 19.076401 -13.184000 -2.111600 30.509701 -33.827000 5.613460 0.000000 36.066101 0.000000 -17.142401 -24.059900 -17.792101 -2.181286 21.828586 -77.677861 0.000000 0.000000 64.468597 14.258430 27.412854 14.703798 0.000000 0.000000 -30.851100 15.325554 -15.272930 -84.249481 0.000000 0.000000 134.106003 33.874854 10.394242 25.000948 0.000000 0.000000 -18.081900 
